Coordinates
version=1
nRows=114
nColumns=11
inDegrees=no

Units are S.I. units (second, meters, Newtons, ...)
If the header above contains a line with 'inDegrees', this indicates whether rotational values are in degrees (yes) or radians (no).

endheader
time	pelvis_tilt	pelvis_tx	pelvis_ty	hip_flexion_r	knee_angle_r	ankle_angle_r	hip_flexion_l	knee_angle_l	ankle_angle_l	lumbar_extension
315.01	0.0173598	-0.00566115	0.918532	0.279476	-0.515651	0.336206	0.342855	-1.26782	-0.016169	0
315.02	0.0405195	-0.00313563	0.920242	0.241004	-0.519625	0.336803	0.338935	-1.28447	0.00121798	0
315.03	0.00288873	-0.009711	0.919312	0.267727	-0.48818	0.34146	0.416035	-1.29114	0.0228723	0
315.04	0.0028983	-0.0108166	0.920308	0.252925	-0.476677	0.346202	0.438311	-1.29092	0.0347493	0
315.05	0.00311576	-0.0114655	0.921256	0.23806	-0.464834	0.346018	0.459595	-1.28633	0.0430497	0
315.06	0.0187999	-0.0094154	0.92342	0.201083	-0.451701	0.350415	0.454954	-1.27193	0.0511665	0
315.07	0.0186796	-0.0107738	0.92402	0.185582	-0.438182	0.351257	0.475075	-1.26052	0.0571216	0
315.08	0.00404954	-0.0146224	0.923265	0.188941	-0.422626	0.347488	0.51629	-1.24967	0.0667014	0
315.09	0.0188416	-0.012598	0.924827	0.15631	-0.414808	0.350227	0.509191	-1.22365	0.0805969	0
315.1	0.0187066	-0.013492	0.925163	0.141619	-0.402557	0.352608	0.523574	-1.19847	0.101876	0
315.11	0.0158939	-0.0148715	0.924939	0.132005	-0.392836	0.356544	0.542755	-1.17384	0.119626	0
315.12	0.011215	-0.0167392	0.924497	0.125008	-0.38324	0.357658	0.563048	-1.1453	0.130607	0
315.13	-0.00752965	-0.0212477	0.922826	0.136163	-0.372949	0.35853	0.600991	-1.11383	0.139037	0
315.14	-0.00977144	-0.0225429	0.922389	0.125534	-0.363568	0.361557	0.612207	-1.07381	0.145162	0
315.15	-0.0121289	-0.0240262	0.921753	0.115437	-0.354289	0.364988	0.622953	-1.03198	0.15205	0
315.16	0.00322398	-0.0228435	0.922452	0.0816597	-0.346041	0.371004	0.605648	-0.985271	0.163302	0
315.17	0.00235773	-0.0238434	0.921898	0.0675594	-0.33312	0.374499	0.610177	-0.937305	0.164059	0
315.18	-0.00170954	-0.0254582	0.920973	0.060336	-0.325487	0.377568	0.620904	-0.892081	0.151297	0
315.19	-0.0207785	-0.0289494	0.918679	0.0706613	-0.311385	0.375263	0.649039	-0.843038	0.142014	0
315.2	-0.00376534	-0.0268172	0.918884	0.0364303	-0.306581	0.383868	0.626298	-0.791282	0.131388	0
315.21	-0.00864868	-0.0288668	0.917383	0.0289095	-0.297724	0.389764	0.629623	-0.736402	0.127644	0
315.22	-0.0103725	-0.0297105	0.916158	0.0174321	-0.289134	0.394273	0.62472	-0.675939	0.126506	0
315.23	-0.0111155	-0.0300157	0.914873	0.00481294	-0.280934	0.395897	0.617441	-0.614688	0.124045	0
315.24	-0.012331	-0.0304618	0.913408	-0.00723357	-0.27324	0.401375	0.614448	-0.563655	0.123226	0
315.25	-0.0144286	-0.0311314	0.91176	-0.0171313	-0.266938	0.409311	0.61684	-0.522969	0.131524	0
315.26	-0.0159333	-0.0314376	0.910192	-0.0284726	-0.259655	0.415619	0.616978	-0.483907	0.142241	0
315.27	-0.0178841	-0.0314622	0.908575	-0.0387092	-0.255171	0.420763	0.615116	-0.445414	0.152088	0
315.28	-0.0196709	-0.0316621	0.906955	-0.0478901	-0.252226	0.425184	0.611763	-0.409906	0.15801	0
315.29	-0.0204944	-0.0315332	0.905311	-0.0580979	-0.249061	0.428768	0.608653	-0.384214	0.166137	0
315.3	-0.0210422	-0.0312075	0.903631	-0.0693807	-0.24583	0.434235	0.605365	-0.364483	0.1768	0
315.31	-0.0218725	-0.0307844	0.902119	-0.0795908	-0.244812	0.436809	0.603411	-0.353007	0.184819	0
315.32	-0.0221122	-0.0303384	0.900744	-0.0900991	-0.243909	0.439226	0.601328	-0.350208	0.191111	0
315.33	-0.0218343	-0.0297563	0.89948	-0.100998	-0.243314	0.441585	0.599874	-0.356735	0.189598	0
315.34	-0.0223611	-0.0291748	0.898183	-0.109902	-0.245247	0.443557	0.599451	-0.368302	0.179993	0
315.35	-0.0227632	-0.0284048	0.896935	-0.118958	-0.247589	0.443386	0.598055	-0.381152	0.168445	0
315.36	-0.0227139	-0.0274692	0.895789	-0.128234	-0.250356	0.44115	0.59709	-0.395887	0.161231	0
315.37	-0.0216829	-0.0265413	0.894816	-0.137549	-0.255192	0.437579	0.595859	-0.411754	0.156605	0
315.38	-0.0206787	-0.0254605	0.894172	-0.147388	-0.259211	0.43152	0.595962	-0.431106	0.148828	0
315.39	-0.0195234	-0.0240273	0.893593	-0.158331	-0.261611	0.426515	0.596601	-0.453752	0.14273	0
315.4	-0.0180354	-0.0225621	0.893163	-0.167811	-0.266922	0.419093	0.598423	-0.479429	0.144357	0
315.41	-0.0162658	-0.0207099	0.89305	-0.178905	-0.270128	0.40545	0.599317	-0.505715	0.151166	0
315.42	-0.015025	-0.0187255	0.893219	-0.189592	-0.272705	0.390246	0.599038	-0.529115	0.157016	0
315.43	-0.0128222	-0.0165509	0.893641	-0.200161	-0.277622	0.375243	0.592971	-0.544207	0.160046	0
315.44	-0.0104531	-0.0143723	0.894212	-0.208485	-0.286837	0.358625	0.585317	-0.556738	0.164565	0
315.45	-0.00864782	-0.0121717	0.894882	-0.214818	-0.298479	0.337327	0.575489	-0.565899	0.177997	0
315.46	-0.0246096	-0.0124558	0.894555	-0.195868	-0.312447	0.312333	0.590541	-0.577375	0.191506	0
315.47	-0.00272901	-0.00739433	0.89666	-0.224424	-0.330374	0.292607	0.555441	-0.587876	0.203975	0
315.48	0.00336703	-0.00419144	0.897995	-0.2306	-0.350924	0.264968	0.538469	-0.59372	0.215196	0
315.49	0.00897918	-0.00123015	0.899248	-0.231358	-0.379686	0.237183	0.521347	-0.597952	0.227409	0
315.5	0.013243	0.00104986	0.900605	-0.225627	-0.414494	0.207828	0.504743	-0.598689	0.237255	0
315.51	0.0152047	0.00272914	0.90192	-0.21084	-0.459053	0.17553	0.493064	-0.60288	0.249446	0
315.52	0.0163484	0.00415373	0.903168	-0.191183	-0.509931	0.143183	0.478186	-0.599951	0.263005	0
315.53	0.0169586	0.00563578	0.904435	-0.167834	-0.565096	0.10835	0.464499	-0.597624	0.27138	0
315.54	0.0172009	0.00708851	0.905681	-0.140725	-0.623618	0.0703486	0.451857	-0.595533	0.280022	0
315.55	0.0187593	0.008486	0.906799	-0.112756	-0.683443	0.0310726	0.439156	-0.596535	0.291309	0
315.56	0.0198156	0.00944561	0.907749	-0.0806426	-0.746619	-0.00921663	0.426879	-0.596521	0.300074	0
315.57	0.0198172	0.010284	0.908582	-0.0451947	-0.811206	-0.0493325	0.41684	-0.597978	0.30657	0
315.58	0.0181423	0.0105065	0.909199	-0.00588974	-0.875442	-0.0920953	0.408952	-0.59939	0.31067	0
315.59	0.00399262	0.00865991	0.908939	0.0520005	-0.937976	-0.137236	0.418261	-0.599372	0.318663	0
315.6	0.00722593	0.00967851	0.910042	0.0789415	-0.98454	-0.171869	0.401876	-0.595689	0.330183	0
315.61	0.0233364	0.0128044	0.912103	0.0839379	-1.0217	-0.186651	0.366161	-0.589483	0.339772	0
315.62	0.0245085	0.012911	0.913081	0.113924	-1.06763	-0.174431	0.351595	-0.583329	0.347242	0
315.63	0.0247715	0.0126865	0.914121	0.144968	-1.11162	-0.141349	0.338808	-0.578179	0.348709	0
315.64	0.0244013	0.012151	0.915333	0.175481	-1.15008	-0.0977619	0.324826	-0.570155	0.348605	0
315.65	0.0257556	0.0126588	0.916458	0.203954	-1.18298	-0.0589652	0.307878	-0.558674	0.351129	0
315.66	0.0253423	0.0125055	0.91756	0.233882	-1.21015	-0.0241894	0.293404	-0.54683	0.354378	0
315.67	0.0115823	0.00920624	0.917795	0.285318	-1.23894	0.00376524	0.298693	-0.537368	0.356423	0
315.68	0.0122604	0.00908044	0.919153	0.311099	-1.25415	0.0279102	0.282175	-0.525132	0.359978	0
315.69	0.0137974	0.00891979	0.920396	0.334915	-1.2645	0.04848	0.262753	-0.510008	0.359822	0
315.7	0.0286318	0.0110496	0.922804	0.336016	-1.26322	0.0632328	0.226151	-0.497192	0.361656	0
315.71	0.0300764	0.0106918	0.924207	0.35745	-1.26227	0.0772867	0.206756	-0.479886	0.361914	0
315.72	0.0279055	0.00940347	0.925204	0.382716	-1.25835	0.0918553	0.191106	-0.46124	0.359285	0
315.73	0.0287631	0.00847506	0.926105	0.402011	-1.24915	0.106147	0.172468	-0.445186	0.360233	0
315.74	0.029192	0.00808665	0.926818	0.42101	-1.23447	0.122822	0.157256	-0.432912	0.359365	0
315.75	0.0257461	0.00655424	0.927124	0.444989	-1.21731	0.142124	0.148074	-0.423294	0.35746	0
315.76	0.0257273	0.00607947	0.92782	0.460647	-1.19344	0.165671	0.130067	-0.405375	0.353694	0
315.77	0.0218807	0.00493414	0.928097	0.480274	-1.16552	0.180369	0.119371	-0.391731	0.351944	0
315.78	0.00490148	0.00102802	0.927023	0.518447	-1.1368	0.192044	0.127151	-0.379332	0.349519	0
315.79	0.00160016	-0.000465625	0.926663	0.534617	-1.10025	0.199355	0.118043	-0.369947	0.351836	0
315.8	0.0138997	0.000303737	0.927532	0.524384	-1.05433	0.205213	0.0877435	-0.360891	0.356946	0
315.81	0.0133396	-0.000390968	0.927493	0.530667	-1.00588	0.208737	0.0717163	-0.345424	0.358759	0
315.82	0.0108164	-0.00144105	0.927082	0.539603	-0.95811	0.198253	0.0598468	-0.333989	0.360231	0
315.83	0.00649148	-0.0029564	0.926305	0.549687	-0.908117	0.176084	0.051792	-0.32447	0.362083	0
315.84	0.00406598	-0.003353	0.925591	0.555121	-0.853898	0.159676	0.0419649	-0.315381	0.364994	0
315.85	-0.0027927	-0.00553027	0.924563	0.563738	-0.798257	0.153228	0.0348323	-0.303115	0.368206	0
315.86	-0.00714648	-0.00675446	0.923339	0.568949	-0.742678	0.149109	0.0267606	-0.294048	0.371162	0
315.87	-0.0112684	-0.00809196	0.921874	0.572745	-0.686357	0.145803	0.0191059	-0.286955	0.376242	0
315.88	-0.0160333	-0.0095313	0.92035	0.577638	-0.632414	0.143135	0.0124633	-0.279984	0.378974	0
315.89	-0.0189062	-0.0102754	0.918877	0.57879	-0.579667	0.151054	0.00266397	-0.272342	0.383179	0
315.9	-0.0217026	-0.0108134	0.917183	0.580253	-0.530434	0.159275	-0.0081596	-0.262664	0.38852	0
315.91	-0.0242303	-0.0111739	0.9154	0.58065	-0.483375	0.166639	-0.0184967	-0.255196	0.395641	0
315.92	-0.026348	-0.0114089	0.913695	0.580284	-0.439879	0.174645	-0.0293085	-0.248401	0.40023	0
315.93	-0.0282228	-0.0115556	0.91196	0.579554	-0.40111	0.181693	-0.0404433	-0.241321	0.403339	0
315.94	-0.0299795	-0.0116999	0.91024	0.580923	-0.3715	0.187008	-0.0511264	-0.234949	0.406866	0
315.95	-0.0314288	-0.0115376	0.908544	0.581688	-0.346974	0.194216	-0.0617259	-0.230204	0.412293	0
315.96	-0.0327545	-0.0113256	0.906913	0.582575	-0.329436	0.198979	-0.0721824	-0.227176	0.417328	0
315.97	-0.0343004	-0.0108952	0.905228	0.585525	-0.320461	0.201084	-0.0799694	-0.22722	0.424076	0
315.98	-0.0364891	-0.011379	0.903513	0.590108	-0.322154	0.199717	-0.0877236	-0.22755	0.427545	0
315.99	-0.0372112	-0.0107322	0.902186	0.593671	-0.331488	0.19007	-0.0972837	-0.22687	0.426946	0
316	-0.0370479	-0.0102609	0.901064	0.597277	-0.349224	0.175586	-0.107126	-0.227983	0.425469	0
316.01	-0.0360576	-0.00946334	0.899891	0.600579	-0.373069	0.16419	-0.117243	-0.231504	0.427639	0
316.02	-0.0355966	-0.0084056	0.898588	0.603242	-0.396701	0.16205	-0.127379	-0.233561	0.428815	0
316.03	-0.0347877	-0.00715182	0.8974	0.604172	-0.418512	0.16242	-0.137381	-0.236766	0.427449	0
316.04	-0.0335529	-0.00592928	0.896521	0.604666	-0.440073	0.158682	-0.147772	-0.23987	0.423641	0
316.05	-0.0324305	-0.00448727	0.895854	0.605597	-0.461608	0.151317	-0.156893	-0.245416	0.418098	0
316.06	-0.0313744	-0.00290314	0.895305	0.604174	-0.478916	0.14337	-0.165789	-0.251976	0.410705	0
316.07	-0.0297994	-0.00125274	0.895031	0.600203	-0.49331	0.136136	-0.174356	-0.259934	0.402702	0
316.08	-0.027945	0.000635807	0.894955	0.596572	-0.509348	0.132927	-0.181663	-0.270239	0.395183	0
316.09	-0.02668	0.00241892	0.895092	0.593163	-0.526113	0.141929	-0.187278	-0.283056	0.385895	0
316.1	-0.0248366	0.00423324	0.895397	0.587438	-0.542193	0.16115	-0.191301	-0.29931	0.370067	0
316.11	-0.0232094	0.00596846	0.895948	0.580497	-0.555214	0.175441	-0.191078	-0.321638	0.349285	0
316.12	-0.0217511	0.007792	0.896753	0.57168	-0.564016	0.183461	-0.187989	-0.348267	0.328736	0
316.13	-0.0208426	0.00938271	0.897712	0.562234	-0.569229	0.192531	-0.181544	-0.378912	0.307627	0
316.14	-0.0200751	0.0106605	0.898827	0.551602	-0.572359	0.204232	-0.170601	-0.415781	0.28358	0
